<svg width="40" height="40" viewBox="0 0 40 40" fill="none" xmlns="http://www.w3.org/2000/svg">
<path d="M26.2549 31.2549H18.451V28.2745H16.6078V24.7843H10.3529V23.4117H8.60784V21.8627H7.31372V16.451H10.3529V15H12.2353V11.8627V8.8039H15.3529V6.90194H18.3725V5.5686H24.0588V10.3529H31.2157V16.451H32.6667V20.6078H26.4902V23.1176H28.2353V24.7843H29.5882V29.9412H26.2549V31.2549Z" fill="#6FDB63"/>
<path fill-rule="evenodd" clip-rule="evenodd" d="M18.4881 4.79826V5.59653H20.8247H23.1612V4.79826V4H20.8247H18.4881V4.79826ZM15.3269 6.36009V7.12364H16.8388H18.3507V6.36009V5.59653H16.8388H15.3269V6.36009ZM23.2511 6.74187C23.2026 7.37187 23.1624 8.80875 23.162 9.93492L23.1612 11.9826H22.4053H21.6493V13.5792V15.1757H22.4053H23.1612V13.5792V11.9826H24.7418H26.3224V11.226C26.3224 10.4694 26.3224 10.4694 25.5321 10.4278L24.7418 10.3861L24.7041 7.99132L24.6666 5.59653H24.003C23.3393 5.59653 23.3393 5.59653 23.2511 6.74187ZM12.1657 8.02603V8.78959H13.6776H15.1895V8.02603V7.26247H13.6776H12.1657V8.02603ZM10.5164 10.3861V11.9826H11.2723H12.0283V10.3861V8.78959H11.2723H10.5164V10.3861ZM26.4598 9.55315V10.3167H28.7964H31.1329V9.55315V8.78959H28.7964H26.4598V9.55315ZM18.488 12.0174L18.4877 13.5792L19.2439 13.5316L20 13.4841V11.9697V10.4555H19.2441H18.4881L18.488 12.0174ZM31.1647 13.6139L31.2016 16.7722L31.9919 16.8139L32.7822 16.8555V18.4451V20.0347H33.5382H34.2941V17.6052V15.1757H33.4695H32.6448V12.8156V10.4555H31.8863H31.1277L31.1647 13.6139ZM12.1384 12.774C12.097 13.5792 12.097 13.5792 11.3067 13.6208C10.5164 13.6625 10.5164 13.6625 10.5164 14.4191V15.1757H12.9217H15.3269V15.9393C15.3269 16.7028 15.3269 16.7028 16.0829 16.7028H16.8388V15.1757V13.6486H15.2651H13.6914L13.6501 12.8503C13.6089 12.0521 13.6089 12.0521 12.8943 12.0104C12.1799 11.9686 12.1799 11.9686 12.1384 12.774ZM7.35521 15.9393V16.7028H8.86709H10.379V15.9393V15.1757H8.86709H7.35521V15.9393ZM20 16.0087V16.8416H18.4194H16.8388V17.5983C16.8388 18.3549 16.8388 18.3549 17.6291 18.3965L18.4194 18.4382L18.4583 20L18.4972 21.5618H19.2486C20 21.5618 20 21.5618 20 20.7983V20.0347H21.5806H23.1612V19.2781C23.1612 18.5215 23.1612 18.5215 22.3709 18.4798L21.5806 18.4382L21.5418 16.8069L21.5032 15.1757H20.7515C20 15.1757 20 15.1757 20 16.0087ZM24.8105 15.9347V16.7028H26.3983H27.9862L27.9445 15.974L27.903 15.2451L26.3568 15.2058L24.8105 15.1665V15.9347ZM5.70589 19.2017V21.5618H6.46183H7.21776V19.2017V16.8416H6.46183H5.70589V19.2017ZM13.5675 18.4725L12.0143 18.5168L12.0556 19.241L12.097 19.9653L13.6432 20.0046L15.1895 20.0439V19.2063C15.1895 18.7457 15.1741 18.3821 15.1551 18.3985C15.1362 18.4147 14.4219 18.448 13.5675 18.4725ZM10.5164 20.7983C10.5164 21.5618 10.5164 21.5618 11.2723 21.5618C12.0283 21.5618 12.0283 21.5618 12.0283 20.7983C12.0283 20.0347 12.0283 20.0347 11.2723 20.0347C10.5164 20.0347 10.5164 20.0347 10.5164 20.7983ZM23.2986 20.7937V21.5527L24.8449 21.5919L26.3911 21.6312L26.4324 22.4295C26.4736 23.2278 26.4736 23.2278 27.2227 23.2278C27.9717 23.2278 27.9717 23.2278 27.9717 23.9913C27.9717 24.7549 27.9717 24.7549 28.7277 24.7549C29.4836 24.7549 29.4836 24.7549 29.4836 23.9913C29.4836 23.2278 29.4836 23.2278 28.7277 23.2278C27.9717 23.2278 27.9717 23.2278 27.9717 22.3948V21.5618H30.3083H32.6448V20.7983V20.0347H27.9717H23.2986V20.7937ZM7.35521 22.4642C7.35521 23.2278 7.35521 23.2278 8.11115 23.2278H8.86709V24.8243V26.4208H11.2723H13.6776V28.0868V29.7527H12.9217C12.1657 29.7527 12.1657 29.7527 12.1657 30.5163C12.1657 31.2798 12.1657 31.2798 11.3411 31.2798C10.5164 31.2798 10.5164 31.2798 10.5164 32.1128V32.9458H8.93581H7.35521V34.4729V36H8.86709H10.379V35.2364C10.379 34.4729 10.379 34.4729 11.2036 34.4729C12.0283 34.4729 12.0283 34.4729 12.0283 33.6399C12.0283 32.8069 12.0283 32.8069 12.7842 32.8069C13.5402 32.8069 13.5402 32.8069 13.5402 32.0434C13.5402 31.2798 13.5402 31.2798 14.2617 31.2634C14.6587 31.2543 15.0298 31.2543 15.0864 31.2634C15.143 31.2725 15.1895 30.905 15.1895 30.4469C15.1895 29.6139 15.1895 29.6139 16.0141 29.6139C16.8388 29.6139 16.8388 29.6139 16.8388 30.4469C16.8388 31.2798 16.8388 31.2798 17.5947 31.2798H18.3507V29.6833V28.0868H17.5947H16.8388V26.4927V24.8988L13.6432 24.8615L10.4477 24.8243L10.4065 24.026C10.3652 23.2278 10.3652 23.2278 9.61615 23.2278C8.86709 23.2278 8.86709 23.2278 8.86709 22.4642C8.86709 21.7007 8.86709 21.7007 8.11115 21.7007C7.35521 21.7007 7.35521 21.7007 7.35521 22.4642ZM16.8388 23.2278V24.7549H17.5947H18.3507V23.2278V21.7007H17.5947H16.8388V23.2278ZM21.6493 26.4208V27.9479H22.4053H23.1612V26.4208V24.8937H22.4053H21.6493V26.4208ZM29.59 27.2191L29.5523 29.5445L27.9717 29.6139L26.3911 29.6833V30.4469V31.2104L27.9374 31.233L29.4836 31.2558V30.4348C29.4836 29.6139 29.4836 29.6139 30.3083 29.6139H31.1329V27.2538V24.8937H30.3803H29.6276L29.59 27.2191ZM18.4881 32.0434V32.8069H22.4053H26.3224V32.0434V31.2798H22.4053H18.4881V32.0434Z" fill="#4D181E"/>
</svg>
