<svg width="12" height="54" viewBox="0 0 12 54" fill="none" xmlns="http://www.w3.org/2000/svg">
<rect y="8" width="4" height="4" fill="#692923"/>
<rect x="4" y="4" width="4" height="4" fill="#692923"/>
<rect x="4" y="8" width="4" height="4" fill="#BA804F"/>
<rect x="8" y="8" width="4" height="4" fill="#BA804F"/>
<rect x="8" y="4" width="4" height="4" fill="#BA804F"/>
<rect x="8" width="4" height="4" fill="#692923"/>
<rect width="4" height="4" transform="matrix(1 0 0 -1 0 46)" fill="#692923"/>
<rect width="4" height="4" transform="matrix(1 0 0 -1 4 50)" fill="#692923"/>
<rect width="4" height="4" transform="matrix(1 0 0 -1 4 46)" fill="#BA804F"/>
<rect width="4" height="4" transform="matrix(1 0 0 -1 8 46)" fill="#BA804F"/>
<rect width="4" height="4" transform="matrix(1 0 0 -1 8 50)" fill="#BA804F"/>
<rect width="4" height="4" transform="matrix(1 0 0 -1 8 54)" fill="#692923"/>
<rect y="12" width="2" height="30" fill="#692923"/>
<rect x="2" y="12" width="6" height="30" fill="#BA804F"/>
<rect x="8" y="12" width="4" height="30" fill="#DDA662"/>
</svg>
