<svg width="32" height="32" viewBox="0 0 32 32" fill="none" xmlns="http://www.w3.org/2000/svg">
<rect x="5.10561" y="13.8873" width="4.05634" height="4.14085" fill="#FAEFCE"/>
<rect x="22.2605" y="5.60562" width="3.6338" height="3.6338" fill="#FAEFCE"/>
<rect x="22.2605" y="22.7606" width="3.6338" height="3.6338" fill="#FAEFCE"/>
<path fill-rule="evenodd" clip-rule="evenodd" d="M22.2969 4.79744V5.59483L24.1133 5.58259L25.9297 5.57031L25.9425 4.78516L25.9554 4H24.1261H22.2969V4.79744ZM20.7355 5.57702C20.7177 5.59483 20.7031 6.06991 20.7031 6.63283V7.65625H19.6719H18.6406V8.42969V9.20313H17.3281H16.0156V10V10.7969H14.7266H13.4375V11.5703V12.3438H14.7266H16.0156V11.5711V10.7984L17.3164 10.7859L18.6172 10.7734L18.63 9.98828L18.6429 9.20313H20.4699H22.2969V10.0006V10.798L24.1133 10.7857L25.9297 10.7734V10V9.22656L24.1138 9.21428L22.298 9.20205L22.2857 7.38616L22.2734 5.57031L21.5207 5.55747C21.1066 5.55044 20.7533 5.5592 20.7355 5.57702ZM25.9375 5.57814C25.9203 5.5953 25.9063 6.41795 25.9063 7.40627V9.20313H26.7031H27.5V7.375V5.54688H26.7344C26.3133 5.54688 25.9547 5.56094 25.9375 5.57814ZM5.06755 12.4043C5.0548 12.4376 5.05016 12.7909 5.05733 13.1895L5.07031 13.9141L7.14453 13.9263L9.21875 13.9385V16V18.0615L7.14453 18.0737L5.07031 18.0859V18.8594V19.6328L7.14453 19.645L9.21875 19.6572V18.8598V18.0625H10.0156H10.8125V16V13.9375H10.0156H9.21875V13.1406V12.3438H7.1548C5.51108 12.3438 5.08606 12.3561 5.06755 12.4043ZM10.8125 13.1172V13.8906H12.1016H13.3906V13.1172V12.3438H12.1016H10.8125V13.1172ZM3.5 16V18.0625H4.29688H5.09375V16V13.9375H4.29688H3.5V16ZM10.8125 18.8828V19.6563H12.1016H13.3906V18.8828V18.1094H12.1016H10.8125V18.8828ZM13.4375 20.4297V21.2031H14.7266H16.0156V22V22.7969H17.3281H18.6406V23.5703V24.3438H19.671H20.7013L20.714 25.3867L20.7266 26.4297H21.5H22.2734L22.2857 24.6138L22.298 22.798L24.1138 22.7857L25.9297 22.7734V22V21.2266L24.1133 21.2143L22.2969 21.202V21.9994V22.7969H20.4699H18.6429L18.63 22.0117L18.6172 21.2266L17.3164 21.2141L16.0156 21.2016V20.4289V19.6563H14.7266H13.4375V20.4297ZM25.9174 24.6133L25.9297 26.4297L26.7148 26.4425L27.5 26.4554V24.6261V22.7969H26.7026H25.9052L25.9174 24.6133ZM22.2969 27.2026V28H24.1261H25.9554L25.9425 27.2148L25.9297 26.4297L24.1133 26.4174L22.2969 26.4052V27.2026Z" fill="#692923"/>
</svg>
