<svg width="40" height="40" viewBox="0 0 40 40" fill="none" xmlns="http://www.w3.org/2000/svg">
<path d="M13.611 22.432H10.2253V24.101H11.8467V27.3913H13.468V29.0365H15.137V32.2314H16.7106V33.8766H18.2843V35.4979H28.2744V33.7812H29.705V18.3787H20.0725V12.6802H18.2843V25.6269H15.137V23.9579H13.611V22.432Z" fill="#EBDBBD"/>
<path fill-rule="evenodd" clip-rule="evenodd" d="M16.8894 3.04848C16.744 3.11613 16.743 3.12608 16.743 4.57484C16.743 5.76087 16.7606 6.05073 16.8371 6.12729C16.9149 6.20509 17.1898 6.21842 18.4145 6.20398L19.8978 6.18649L19.9153 4.66233C19.925 3.82405 19.9072 3.11255 19.876 3.08133C19.7909 2.99625 17.066 2.96626 16.8894 3.04848ZM24.9786 7.94813C24.9569 8.00472 24.9391 8.72188 24.9391 9.54182V11.0326H26.5328H28.1265V9.43891V7.84522H26.5723C25.215 7.84522 25.0131 7.85823 24.9786 7.94813ZM10.3682 11.0663V12.6612L11.9131 12.6437L13.458 12.6263L13.469 11.1627C13.4751 10.3577 13.4658 9.64791 13.4484 9.58527C13.4194 9.481 13.2887 9.47143 11.8925 9.47143H10.3682V11.0663ZM18.3799 11.8491C18.3988 12.3613 18.4296 12.5513 18.5011 12.5975C18.5537 12.6314 18.8896 12.6518 19.2474 12.6427L19.8978 12.6263L19.9163 11.8945L19.9347 11.1627H19.1445H18.3544L18.3799 11.8491ZM16.743 18.4026C16.743 22.6821 16.7245 24.0348 16.6649 24.0943C16.6139 24.1454 16.344 24.1724 15.8844 24.1724H15.1818V24.8841C15.1818 25.3493 15.2077 25.6118 15.2564 25.6419C15.3115 25.6759 17.159 25.693 18.2554 25.6695C18.2822 25.669 18.3042 22.7706 18.3042 19.2287V12.7889H17.5236H16.743V18.4026ZM20.0605 17.6025V22.4161L20.7597 22.4156C21.4552 22.415 21.4595 22.4141 21.5403 22.24C21.5974 22.117 21.6216 21.6471 21.6216 20.6598C21.6216 19.6537 21.6438 19.2325 21.6997 19.1767C21.7501 19.1263 22.0107 19.0986 22.436 19.0986C23.0616 19.0986 23.1015 19.1069 23.2394 19.2655C23.3801 19.4273 23.3844 19.4743 23.3777 20.7779C23.3739 21.5179 23.3724 22.1892 23.3744 22.2697C23.3778 22.4109 23.3997 22.4161 23.9906 22.4161C24.3275 22.4161 24.6495 22.3983 24.7061 22.3766C24.7959 22.3422 24.809 22.1439 24.809 20.8255C24.809 18.9836 24.7488 19.0986 25.7132 19.0986C26.2039 19.0986 26.4039 19.1231 26.4724 19.1916C26.5477 19.267 26.5653 19.58 26.5653 20.8503V22.4161H27.2529C27.7622 22.4161 27.9648 22.3919 28.0335 22.3231C28.1088 22.2479 28.1265 21.94 28.1265 20.7039C28.1265 19.3721 28.1396 19.1726 28.2294 19.1381C28.286 19.1164 28.6515 19.0986 29.0416 19.0986H29.751L29.7256 18.4319C29.7116 18.0652 29.6973 17.7139 29.6939 17.6513C29.688 17.5443 29.4654 17.5374 25.9799 17.5374C23.5514 17.5374 22.2721 17.5599 22.2721 17.6025C22.2721 17.7023 21.8196 17.6797 21.7146 17.5746C21.6374 17.4975 21.6216 17.0821 21.6216 15.1353V12.7889H20.841H20.0605V17.6025ZM29.7953 19.3379C29.7248 19.4084 29.7479 33.722 29.8186 33.7461C29.8525 33.7576 30.2028 33.7579 30.597 33.7467L31.3139 33.7264V26.5101V19.2938H30.5767C30.1711 19.2938 29.8196 19.3136 29.7953 19.3379ZM8.76148 20.9488C8.66299 21.0609 8.6602 23.5978 8.75829 23.8655C8.82464 24.0465 8.82464 24.0465 9.51513 24.0281L10.2056 24.0098L10.2381 23.2292L10.2707 22.4486L11.8287 22.4311C12.9756 22.4183 13.4002 22.3925 13.4377 22.3335C13.4976 22.2393 13.5086 21.1076 13.4511 20.9578C13.4161 20.8666 13.1516 20.8552 11.1256 20.8574C9.2764 20.8594 8.8247 20.8768 8.76148 20.9488ZM13.6208 22.5353C13.5823 22.5481 13.5556 22.862 13.5556 23.3017V24.0464L14.3199 24.0281L15.0843 24.0098L15.1029 23.3324C15.1146 22.906 15.0953 22.6289 15.0508 22.5844C14.9869 22.5206 13.7886 22.4796 13.6208 22.5353ZM10.3682 25.7746V27.3768L11.0514 27.3464C11.4272 27.3297 11.7486 27.3021 11.7657 27.2849C11.7828 27.2678 11.805 26.5605 11.8149 25.7131L11.8329 24.1724H11.1006H10.3682V25.7746ZM11.9624 28.0035C11.8941 28.9574 11.8643 28.9209 12.7143 28.9209H13.4255V28.1403V27.3598H12.717H12.0085L11.9624 28.0035ZM13.5556 30.5471V32.1083H14.3362H15.1168V30.5866C15.1168 29.2591 15.1036 29.0599 15.0139 29.0255C14.9573 29.0037 14.606 28.986 14.2333 28.986H13.5556V30.5471ZM15.2252 32.2818C15.2013 32.3056 15.1818 32.6432 15.1818 33.0319V33.7386L15.9461 33.7203L16.7105 33.702L16.7291 33.0243C16.7429 32.5259 16.7256 32.3326 16.6641 32.2935C16.564 32.23 15.2873 32.2196 15.2252 32.2818ZM16.7864 33.908C16.7625 33.9318 16.743 34.2412 16.743 34.5956C16.743 35.0673 16.7679 35.2648 16.8359 35.3328C16.9027 35.3996 17.0935 35.4258 17.5136 35.4258C17.8352 35.4258 18.1447 35.408 18.2012 35.3863C18.2868 35.3535 18.3042 35.2215 18.3042 34.6057V33.8646H17.567C17.1614 33.8646 16.8102 33.8841 16.7864 33.908ZM28.2349 33.908C28.1807 33.9622 28.1773 35.183 28.231 35.3229C28.2637 35.408 28.3926 35.4258 28.9747 35.4258C29.5896 35.4258 29.6835 35.4113 29.7152 35.3114C29.7352 35.2484 29.7484 34.8971 29.7446 34.5308L29.7376 33.8646H29.0079C28.6066 33.8646 28.2587 33.8841 28.2349 33.908ZM18.4365 35.6166C18.3995 35.6858 18.3692 35.9925 18.3692 36.2981C18.3692 36.8065 18.3817 36.8609 18.5156 36.9367C18.6318 37.0024 19.6316 37.0128 23.3779 36.9869L28.094 36.9544L28.1124 36.2226L28.1308 35.4908H23.3173C18.625 35.4908 18.5022 35.494 18.4365 35.6166Z" fill="#692923"/>
</svg>
